<?xml version="1.0" encoding="UTF-8" standalone="no"?>
<svg
   xmlns:dc="http://purl.org/dc/elements/1.1/"
   xmlns:cc="http://creativecommons.org/ns#"
   xmlns:rdf="http://www.w3.org/1999/02/22-rdf-syntax-ns#"
   xmlns:svg="http://www.w3.org/2000/svg"
   xmlns="http://www.w3.org/2000/svg"
   viewBox="0 0 555.92915 227.42689"
   height="60.173363mm"
   width="147.08958mm"
   id="svg2"
   version="1.1">
  <metadata
     id="metadata8">
    <rdf:RDF>
      <cc:Work
         rdf:about="">
        <dc:format>image/svg+xml</dc:format>
        <dc:type
           rdf:resource="http://purl.org/dc/dcmitype/StillImage" />
        <dc:title />
      </cc:Work>
    </rdf:RDF>
  </metadata>
  <defs
     id="defs6">
    <marker
       style="overflow:visible"
       id="marker8276"
       refX="0"
       refY="0"
       orient="auto">
      <path
         transform="scale(-0.6)"
         d="M 8.7185878,4.0337352 -2.2072895,0.01601326 8.7185884,-4.0017078 c -1.7454984,2.3720609 -1.7354408,5.6174519 -6e-7,8.035443 z"
         style="fill:#000000;fill-opacity:1;fill-rule:evenodd;stroke:#000000;stroke-width:0.625;stroke-linejoin:round;stroke-opacity:1"
         id="path8274" />
    </marker>
    <marker
       style="overflow:visible"
       id="marker7064"
       refX="0"
       refY="0"
       orient="auto">
      <path
         transform="scale(-0.6)"
         d="M 8.7185878,4.0337352 -2.2072895,0.01601326 8.7185884,-4.0017078 c -1.7454984,2.3720609 -1.7354408,5.6174519 -6e-7,8.035443 z"
         style="fill:#000000;fill-opacity:1;fill-rule:evenodd;stroke:#000000;stroke-width:0.625;stroke-linejoin:round;stroke-opacity:1"
         id="path7062" />
    </marker>
    <marker
       style="overflow:visible"
       id="marker5888"
       refX="0"
       refY="0"
       orient="auto">
      <path
         transform="scale(-0.6)"
         d="M 8.7185878,4.0337352 -2.2072895,0.01601326 8.7185884,-4.0017078 c -1.7454984,2.3720609 -1.7354408,5.6174519 -6e-7,8.035443 z"
         style="fill:#000000;fill-opacity:1;fill-rule:evenodd;stroke:#000000;stroke-width:0.625;stroke-linejoin:round;stroke-opacity:1"
         id="path5886" />
    </marker>
    <marker
       style="overflow:visible"
       id="marker5845"
       refX="0"
       refY="0"
       orient="auto">
      <path
         transform="scale(-0.6)"
         d="M 8.7185878,4.0337352 -2.2072895,0.01601326 8.7185884,-4.0017078 c -1.7454984,2.3720609 -1.7354408,5.6174519 -6e-7,8.035443 z"
         style="fill:#000000;fill-opacity:1;fill-rule:evenodd;stroke:#000000;stroke-width:0.625;stroke-linejoin:round;stroke-opacity:1"
         id="path5843" />
    </marker>
    <marker
       style="overflow:visible"
       id="marker5115"
       refX="0"
       refY="0"
       orient="auto">
      <path
         transform="scale(-0.6)"
         d="M 8.7185878,4.0337352 -2.2072895,0.01601326 8.7185884,-4.0017078 c -1.7454984,2.3720609 -1.7354408,5.6174519 -6e-7,8.035443 z"
         style="fill:#000000;fill-opacity:1;fill-rule:evenodd;stroke:#000000;stroke-width:0.625;stroke-linejoin:round;stroke-opacity:1"
         id="path5113" />
    </marker>
    <marker
       orient="auto"
       refY="0"
       refX="0"
       id="marker4863"
       style="overflow:visible">
      <path
         id="path4861"
         style="fill:#000000;fill-opacity:1;fill-rule:evenodd;stroke:#000000;stroke-width:0.625;stroke-linejoin:round;stroke-opacity:1"
         d="M 8.7185878,4.0337352 -2.2072895,0.01601326 8.7185884,-4.0017078 c -1.7454984,2.3720609 -1.7354408,5.6174519 -6e-7,8.035443 z"
         transform="scale(-0.6)" />
    </marker>
    <marker
       style="overflow:visible"
       id="Arrow2Mend"
       refX="0"
       refY="0"
       orient="auto">
      <path
         transform="scale(-0.6)"
         d="M 8.7185878,4.0337352 -2.2072895,0.01601326 8.7185884,-4.0017078 c -1.7454984,2.3720609 -1.7354408,5.6174519 -6e-7,8.035443 z"
         style="fill:#000000;fill-opacity:1;fill-rule:evenodd;stroke:#000000;stroke-width:0.625;stroke-linejoin:round;stroke-opacity:1"
         id="path4604" />
    </marker>
  </defs>
  <rect
     style="fill:#ebebeb;fill-opacity:1;stroke:none;stroke-width:0.59407002;stroke-miterlimit:4;stroke-dasharray:none;paint-order:stroke markers fill"
     id="rect4539"
     width="197.77074"
     height="124.58035"
     x="193.76138"
     y="40.164436"
     rx="7.4979205"
     ry="9.8711758" />
  <rect
     ry="13.7557"
     rx="12.200592"
     y="19.464567"
     x="19.464567"
     height="173.60545"
     width="517"
     id="rect4537"
     style="fill:none;fill-opacity:1;stroke:#4d4d4d;stroke-width:1.13385832;stroke-miterlimit:4;stroke-dasharray:none;paint-order:stroke markers fill" />
  <g
     id="text4571"
     style="font-style:normal;font-weight:normal;font-size:40px;line-height:1.25;font-family:sans-serif;letter-spacing:0px;word-spacing:0px;fill:#4d4d4d;fill-opacity:1;stroke:none"
     aria-label="Programar">
    <path
       id="path48"
       style="font-style:normal;font-variant:normal;font-weight:bold;font-stretch:normal;font-size:12px;font-family:'Fira Sans';-inkscape-font-specification:'Fira Sans Bold';fill:#4d4d4d"
       d="m 34.179979,197.71716 h -2.688 v 8.316 h 1.968 v -2.772 h 0.9 c 1.92,0 3.288,-0.9 3.288,-2.832 0,-1.824 -1.32,-2.712 -3.468,-2.712 z m 0.012,4.128 h -0.732 v -2.724 h 0.696 c 0.972,0 1.464,0.42 1.464,1.308 0,1.044 -0.54,1.416 -1.428,1.416 z" />
    <path
       id="path50"
       style="font-style:normal;font-variant:normal;font-weight:bold;font-stretch:normal;font-size:12px;font-family:'Fira Sans';-inkscape-font-specification:'Fira Sans Bold';fill:#4d4d4d"
       d="m 41.872916,199.48116 c -0.732,0 -1.356,0.528 -1.644,1.416 l -0.156,-1.236 h -1.656 v 6.372 h 1.896 v -3.156 c 0.204,-0.972 0.528,-1.56 1.32,-1.56 0.216,0 0.372,0.036 0.576,0.084 l 0.3,-1.836 c -0.204,-0.06 -0.396,-0.084 -0.636,-0.084 z" />
    <path
       id="path52"
       style="font-style:normal;font-variant:normal;font-weight:bold;font-stretch:normal;font-size:12px;font-family:'Fira Sans';-inkscape-font-specification:'Fira Sans Bold';fill:#4d4d4d"
       d="m 45.630041,199.45716 c -1.944,0 -3.12,1.344 -3.12,3.384 0,2.148 1.188,3.396 3.12,3.396 1.944,0 3.12,-1.344 3.12,-3.384 0,-2.148 -1.176,-3.396 -3.12,-3.396 z m 0,1.392 c 0.768,0 1.152,0.588 1.152,2.004 0,1.38 -0.384,1.992 -1.152,1.992 -0.768,0 -1.152,-0.588 -1.152,-2.004 0,-1.38 0.384,-1.992 1.152,-1.992 z" />
    <path
       id="path54"
       style="font-style:normal;font-variant:normal;font-weight:bold;font-stretch:normal;font-size:12px;font-family:'Fira Sans';-inkscape-font-specification:'Fira Sans Bold';fill:#4d4d4d"
       d="m 55.301854,198.62916 c -0.768,0.456 -1.584,0.864 -3,0.828 -1.668,0 -2.796,0.888 -2.796,2.328 0,0.828 0.324,1.392 1.14,1.824 -0.456,0.288 -0.756,0.756 -0.756,1.224 0,0.684 0.564,1.26 1.956,1.26 h 0.924 c 0.636,0 0.912,0.252 0.912,0.624 0,0.408 -0.264,0.72 -1.38,0.72 -1.152,0 -1.392,-0.24 -1.392,-0.792 h -1.704 c 0,1.26 0.636,2.052 3.048,2.052 2.184,0 3.336,-0.804 3.336,-2.112 0,-1.068 -0.948,-1.848 -2.436,-1.848 h -0.96 c -0.612,0 -0.696,-0.192 -0.696,-0.384 0,-0.144 0.072,-0.288 0.204,-0.36 0.228,0.048 0.468,0.072 0.732,0.072 1.656,0 2.676,-0.9 2.676,-2.136 0,-0.828 -0.396,-1.296 -1.2,-1.644 0.804,0 1.392,-0.072 1.836,-0.252 z m -2.952,2.076 c 0.636,0 0.96,0.324 0.96,1.032 0,0.732 -0.336,1.104 -0.96,1.104 -0.576,0 -0.96,-0.384 -0.96,-1.08 0,-0.66 0.372,-1.056 0.96,-1.056 z" />
    <path
       id="path56"
       style="font-style:normal;font-variant:normal;font-weight:bold;font-stretch:normal;font-size:12px;font-family:'Fira Sans';-inkscape-font-specification:'Fira Sans Bold';fill:#4d4d4d"
       d="m 59.943229,199.48116 c -0.732,0 -1.356,0.528 -1.644,1.416 l -0.156,-1.236 h -1.656 v 6.372 h 1.896 v -3.156 c 0.204,-0.972 0.528,-1.56 1.32,-1.56 0.216,0 0.372,0.036 0.576,0.084 l 0.3,-1.836 c -0.204,-0.06 -0.396,-0.084 -0.636,-0.084 z" />
    <path
       id="path58"
       style="font-style:normal;font-variant:normal;font-weight:bold;font-stretch:normal;font-size:12px;font-family:'Fira Sans';-inkscape-font-specification:'Fira Sans Bold';fill:#4d4d4d"
       d="m 65.934041,204.18516 v -2.472 c 0,-1.476 -0.792,-2.256 -2.64,-2.256 -0.72,0 -1.596,0.168 -2.4,0.468 l 0.432,1.248 c 0.636,-0.216 1.26,-0.336 1.668,-0.336 0.78,0 1.08,0.228 1.08,0.984 v 0.276 h -0.648 c -1.932,0 -2.988,0.756 -2.988,2.148 0,1.164 0.804,1.992 2.076,1.992 0.756,0 1.464,-0.252 1.92,-0.96 0.288,0.636 0.78,0.864 1.536,0.924 l 0.396,-1.236 c -0.3,-0.108 -0.432,-0.288 -0.432,-0.78 z m -2.868,0.696 c -0.468,0 -0.744,-0.3 -0.744,-0.804 0,-0.636 0.42,-0.936 1.284,-0.936 h 0.468 v 1.128 c -0.228,0.384 -0.564,0.612 -1.008,0.612 z" />
    <path
       id="path60"
       style="font-style:normal;font-variant:normal;font-weight:bold;font-stretch:normal;font-size:12px;font-family:'Fira Sans';-inkscape-font-specification:'Fira Sans Bold';fill:#4d4d4d"
       d="m 74.499979,199.45716 c -0.816,0 -1.404,0.336 -1.908,1.008 -0.24,-0.648 -0.792,-1.008 -1.5,-1.008 -0.78,0 -1.356,0.324 -1.848,0.948 l -0.132,-0.744 h -1.656 v 6.372 h 1.896 v -4.356 c 0.276,-0.528 0.576,-0.828 0.972,-0.828 0.288,0 0.54,0.18 0.54,0.852 v 4.332 h 1.896 v -4.356 c 0.276,-0.528 0.564,-0.828 0.972,-0.828 0.288,0 0.54,0.18 0.54,0.852 v 4.332 h 1.896 v -4.656 c 0,-1.212 -0.684,-1.92 -1.668,-1.92 z" />
    <path
       id="path62"
       style="font-style:normal;font-variant:normal;font-weight:bold;font-stretch:normal;font-size:12px;font-family:'Fira Sans';-inkscape-font-specification:'Fira Sans Bold';fill:#4d4d4d"
       d="m 82.668416,204.18516 v -2.472 c 0,-1.476 -0.792,-2.256 -2.64,-2.256 -0.72,0 -1.596,0.168 -2.4,0.468 l 0.432,1.248 c 0.636,-0.216 1.26,-0.336 1.668,-0.336 0.78,0 1.08,0.228 1.08,0.984 v 0.276 h -0.648 c -1.932,0 -2.988,0.756 -2.988,2.148 0,1.164 0.804,1.992 2.076,1.992 0.756,0 1.464,-0.252 1.92,-0.96 0.288,0.636 0.78,0.864 1.536,0.924 l 0.396,-1.236 c -0.3,-0.108 -0.432,-0.288 -0.432,-0.78 z m -2.868,0.696 c -0.468,0 -0.744,-0.3 -0.744,-0.804 0,-0.636 0.42,-0.936 1.284,-0.936 h 0.468 v 1.128 c -0.228,0.384 -0.564,0.612 -1.008,0.612 z" />
    <path
       id="path64"
       style="font-style:normal;font-variant:normal;font-weight:bold;font-stretch:normal;font-size:12px;font-family:'Fira Sans';-inkscape-font-specification:'Fira Sans Bold';fill:#4d4d4d"
       d="m 87.646354,199.48116 c -0.732,0 -1.356,0.528 -1.644,1.416 l -0.156,-1.236 h -1.656 v 6.372 h 1.896 v -3.156 c 0.204,-0.972 0.528,-1.56 1.32,-1.56 0.216,0 0.372,0.036 0.576,0.084 l 0.3,-1.836 c -0.204,-0.06 -0.396,-0.084 -0.636,-0.084 z" />
  </g>
  <rect
     style="fill:#c4e7ff;fill-opacity:1;stroke:none;stroke-width:0.2998597;stroke-miterlimit:4;stroke-dasharray:none;paint-order:stroke markers fill"
     id="rect894"
     width="260.06076"
     height="24.13781"
     x="47.303322"
     y="88.990112"
     rx="4.1600847"
     ry="3.4879873" />
  <path
     id="path5111"
     d="m 391.38394,98.896716 h 30.31084"
     style="fill:none;stroke:#000000;stroke-width:1.20000005;stroke-linecap:butt;stroke-linejoin:miter;stroke-miterlimit:4;stroke-dasharray:none;stroke-opacity:1;marker-end:url(#marker5115)" />
  <g
     id="text4555"
     style="font-style:normal;font-weight:normal;font-size:40px;line-height:1.25;font-family:sans-serif;letter-spacing:0px;word-spacing:0px;fill:#000000;fill-opacity:1;stroke:none"
     aria-label="Visualizar">
    <path
       id="path67"
       style="font-style:normal;font-variant:normal;font-weight:normal;font-stretch:normal;font-size:14.66666698px;font-family:'Fira Sans';-inkscape-font-specification:'Fira Sans'"
       d="m 324.48506,49.902002 h -1.408 l -2.53733,8.594667 -2.53733,-8.594667 h -1.496 l 3.256,10.105334 h 1.496 z" />
    <path
       id="path69"
       style="font-style:normal;font-variant:normal;font-weight:normal;font-stretch:normal;font-size:14.66666698px;font-family:'Fira Sans';-inkscape-font-specification:'Fira Sans'"
       d="m 326.63579,48.567335 c -0.55733,0 -0.93866,0.396 -0.93866,0.924 0,0.513334 0.38133,0.909334 0.93866,0.909334 0.572,0 0.95334,-0.396 0.95334,-0.909334 0,-0.528 -0.38134,-0.924 -0.95334,-0.924 z m 0.68934,3.710667 h -1.34934 v 7.729334 h 1.34934 z" />
    <path
       id="path71"
       style="font-style:normal;font-variant:normal;font-weight:normal;font-stretch:normal;font-size:14.66666698px;font-family:'Fira Sans';-inkscape-font-specification:'Fira Sans'"
       d="m 332.19813,52.102002 c -1.59867,0 -2.78667,0.894667 -2.78667,2.126667 0,1.085333 0.66,1.804 2.332,2.244 1.496,0.396 1.87733,0.689333 1.87733,1.452 0,0.733333 -0.64533,1.173333 -1.65733,1.173333 -0.836,0 -1.55467,-0.278666 -2.17067,-0.748 l -0.71866,0.821334 c 0.67466,0.586666 1.61333,1.012 2.91866,1.012 1.56934,0 3.05067,-0.733334 3.05067,-2.346667 0,-1.349333 -0.93867,-1.994667 -2.56667,-2.405333 -1.24666,-0.322667 -1.65733,-0.616 -1.65733,-1.246667 0,-0.616 0.54267,-1.012 1.42267,-1.012 0.71866,0 1.32,0.22 2.00933,0.66 l 0.572,-0.850667 c -0.73333,-0.557333 -1.54,-0.88 -2.62533,-0.88 z" />
    <path
       id="path73"
       style="font-style:normal;font-variant:normal;font-weight:normal;font-stretch:normal;font-size:14.66666698px;font-family:'Fira Sans';-inkscape-font-specification:'Fira Sans'"
       d="m 342.69648,52.278002 h -1.34933 v 5.514667 c -0.46934,0.777333 -1.1,1.334667 -1.936,1.334667 -0.836,0 -1.188,-0.396 -1.188,-1.452 v -5.397334 h -1.34934 v 5.544 c 0,1.510667 0.80667,2.361334 2.156,2.361334 1.1,0 1.81867,-0.44 2.40534,-1.378667 l 0.10266,1.202667 h 1.15867 z" />
    <path
       id="path75"
       style="font-style:normal;font-variant:normal;font-weight:normal;font-stretch:normal;font-size:14.66666698px;font-family:'Fira Sans';-inkscape-font-specification:'Fira Sans'"
       d="m 350.69027,58.203336 v -3.534667 c 0,-1.613333 -0.85067,-2.566667 -2.71333,-2.566667 -0.86534,0 -1.716,0.176 -2.66934,0.528 l 0.33734,0.982667 c 0.792,-0.264 1.51066,-0.410667 2.08266,-0.410667 1.07067,0 1.61334,0.410667 1.61334,1.525334 v 0.572 h -1.188 c -2.156,0 -3.40267,0.894666 -3.40267,2.552 0,1.378666 0.924,2.332 2.464,2.332 0.93867,0 1.76,-0.352 2.30267,-1.158667 0.23466,0.762667 0.73333,1.070667 1.51066,1.158667 l 0.308,-0.938667 c -0.396,-0.146667 -0.64533,-0.366667 -0.64533,-1.041333 z m -3.168,0.968 c -0.88,0 -1.33467,-0.484 -1.33467,-1.393334 0,-1.056 0.71867,-1.584 2.14134,-1.584 h 1.012 v 1.774667 c -0.44,0.806667 -1.02667,1.202667 -1.81867,1.202667 z" />
    <path
       id="path77"
       style="font-style:normal;font-variant:normal;font-weight:normal;font-stretch:normal;font-size:14.66666698px;font-family:'Fira Sans';-inkscape-font-specification:'Fira Sans'"
       d="m 354.87257,60.183336 c 0.396,0 0.77733,-0.102667 1.07066,-0.264 l -0.352,-0.938667 c -0.14666,0.05867 -0.308,0.088 -0.49866,0.088 -0.352,0 -0.484,-0.205333 -0.484,-0.616 v -9.445334 l -1.34934,0.161334 v 9.313333 c 0,1.1 0.63067,1.701334 1.61334,1.701334 z" />
    <path
       id="path79"
       style="font-style:normal;font-variant:normal;font-weight:normal;font-stretch:normal;font-size:14.66666698px;font-family:'Fira Sans';-inkscape-font-specification:'Fira Sans'"
       d="m 358.28944,48.567335 c -0.55733,0 -0.93867,0.396 -0.93867,0.924 0,0.513334 0.38134,0.909334 0.93867,0.909334 0.572,0 0.95333,-0.396 0.95333,-0.909334 0,-0.528 -0.38133,-0.924 -0.95333,-0.924 z m 0.68933,3.710667 h -1.34933 v 7.729334 h 1.34933 z" />
    <path
       id="path81"
       style="font-style:normal;font-variant:normal;font-weight:normal;font-stretch:normal;font-size:14.66666698px;font-family:'Fira Sans';-inkscape-font-specification:'Fira Sans'"
       d="m 366.28644,52.278002 h -5.22133 v 1.144 h 3.68133 l -4.01867,5.573334 v 1.012 h 5.44134 l 0.16133,-1.129334 h -4.07733 l 4.03333,-5.573333 z" />
    <path
       id="path83"
       style="font-style:normal;font-variant:normal;font-weight:normal;font-stretch:normal;font-size:14.66666698px;font-family:'Fira Sans';-inkscape-font-specification:'Fira Sans'"
       d="m 373.14861,58.203336 v -3.534667 c 0,-1.613333 -0.85067,-2.566667 -2.71334,-2.566667 -0.86533,0 -1.716,0.176 -2.66933,0.528 l 0.33733,0.982667 c 0.792,-0.264 1.51067,-0.410667 2.08267,-0.410667 1.07067,0 1.61333,0.410667 1.61333,1.525334 v 0.572 h -1.188 c -2.156,0 -3.40266,0.894666 -3.40266,2.552 0,1.378666 0.924,2.332 2.464,2.332 0.93866,0 1.76,-0.352 2.30266,-1.158667 0.23467,0.762667 0.73334,1.070667 1.51067,1.158667 l 0.308,-0.938667 c -0.396,-0.146667 -0.64533,-0.366667 -0.64533,-1.041333 z m -3.168,0.968 c -0.88,0 -1.33467,-0.484 -1.33467,-1.393334 0,-1.056 0.71867,-1.584 2.14133,-1.584 h 1.012 v 1.774667 c -0.44,0.806667 -1.02666,1.202667 -1.81866,1.202667 z" />
    <path
       id="path85"
       style="font-style:normal;font-variant:normal;font-weight:normal;font-stretch:normal;font-size:14.66666698px;font-family:'Fira Sans';-inkscape-font-specification:'Fira Sans'"
       d="m 379.29279,52.102002 c -0.93866,0 -1.65733,0.586667 -2.068,1.745334 l -0.132,-1.569334 h -1.15866 v 7.729334 h 1.34933 v -4.414667 c 0.32267,-1.481333 0.88,-2.170667 1.848,-2.170667 0.27867,0 0.44,0.02933 0.67467,0.088 l 0.24933,-1.32 c -0.23467,-0.05867 -0.51333,-0.088 -0.76267,-0.088 z" />
  </g>
  <g
     id="text4559"
     style="font-style:normal;font-weight:normal;font-size:40px;line-height:1.25;font-family:sans-serif;letter-spacing:0px;word-spacing:0px;fill:#000000;fill-opacity:1;stroke:none"
     aria-label="Modelar">
    <path
       id="path88"
       style="font-style:normal;font-variant:normal;font-weight:normal;font-stretch:normal;font-size:14.66666698px;font-family:'Fira Sans';-inkscape-font-specification:'Fira Sans'"
       d="m 328.37136,136.83121 h -1.892 l -2.024,7.348 -2.12667,-7.348 h -1.87733 l -0.836,10.10533 h 1.32 l 0.33733,-4.45867 c 0.11733,-1.48133 0.19067,-3.05066 0.19067,-4.23866 l 2.30266,7.55333 h 1.30534 l 2.18533,-7.53867 c 0.0147,0.836 0.11733,2.53734 0.24933,4.12134 l 0.352,4.56133 h 1.34934 z" />
    <path
       id="path90"
       style="font-style:normal;font-variant:normal;font-weight:normal;font-stretch:normal;font-size:14.66666698px;font-family:'Fira Sans';-inkscape-font-specification:'Fira Sans'"
       d="m 334.4044,139.03121 c -2.2,0 -3.46133,1.65733 -3.46133,4.048 0,2.44933 1.24666,4.03333 3.44666,4.03333 2.18534,0 3.44667,-1.65733 3.44667,-4.048 0,-2.44933 -1.232,-4.03333 -3.432,-4.03333 z m 0,1.08533 c 1.276,0 1.98,0.93867 1.98,2.948 0,2.024 -0.704,2.96267 -1.99467,2.96267 -1.29066,0 -1.99466,-0.93867 -1.99466,-2.948 0,-2.024 0.71866,-2.96267 2.00933,-2.96267 z" />
    <path
       id="path92"
       style="font-style:normal;font-variant:normal;font-weight:normal;font-stretch:normal;font-size:14.66666698px;font-family:'Fira Sans';-inkscape-font-specification:'Fira Sans'"
       d="m 344.70017,135.93654 v 4.048 c -0.51333,-0.54267 -1.17333,-0.95333 -2.08267,-0.95333 -1.892,0 -3.036,1.716 -3.036,4.07733 0,2.40533 1.04134,4.004 2.91867,4.004 0.95333,0 1.73067,-0.46933 2.22933,-1.24667 l 0.132,1.07067 h 1.188 v -10.83867 z m -1.90667,10.10533 c -1.11466,0 -1.76,-0.924 -1.76,-2.96266 0,-2.00934 0.71867,-2.97734 1.87734,-2.97734 0.76266,0 1.30533,0.396 1.78933,1.012 v 3.784 c -0.51333,0.71867 -1.04133,1.144 -1.90667,1.144 z" />
    <path
       id="path94"
       style="font-style:normal;font-variant:normal;font-weight:normal;font-stretch:normal;font-size:14.66666698px;font-family:'Fira Sans';-inkscape-font-specification:'Fira Sans'"
       d="m 354.66846,142.84454 c 0,-2.36133 -1.1,-3.81333 -3.18266,-3.81333 -1.99467,0 -3.212,1.716 -3.212,4.12133 0,2.44933 1.26133,3.96 3.41733,3.96 1.07067,0 1.936,-0.36667 2.69867,-0.968 l -0.58667,-0.80667 c -0.67467,0.46934 -1.24667,0.67467 -2.00933,0.67467 -1.11467,0 -1.95067,-0.68933 -2.08267,-2.47867 h 4.928 c 0.0147,-0.176 0.0293,-0.42533 0.0293,-0.68933 z m -1.33466,-0.308 h -3.62267 c 0.10267,-1.716 0.77733,-2.43467 1.804,-2.43467 1.21733,0 1.81867,0.836 1.81867,2.34667 z" />
    <path
       id="path96"
       style="font-style:normal;font-variant:normal;font-weight:normal;font-stretch:normal;font-size:14.66666698px;font-family:'Fira Sans';-inkscape-font-specification:'Fira Sans'"
       d="m 358.36332,147.11254 c 0.396,0 0.77733,-0.10267 1.07067,-0.264 l -0.352,-0.93867 c -0.14667,0.0587 -0.308,0.088 -0.49867,0.088 -0.352,0 -0.484,-0.20533 -0.484,-0.616 v -9.44533 l -1.34933,0.16133 v 9.31334 c 0,1.1 0.63066,1.70133 1.61333,1.70133 z" />
    <path
       id="path98"
       style="font-style:normal;font-variant:normal;font-weight:normal;font-stretch:normal;font-size:14.66666698px;font-family:'Fira Sans';-inkscape-font-specification:'Fira Sans'"
       d="m 366.24092,145.13254 v -3.53467 c 0,-1.61333 -0.85066,-2.56666 -2.71333,-2.56666 -0.86533,0 -1.716,0.176 -2.66933,0.528 l 0.33733,0.98266 c 0.792,-0.264 1.51067,-0.41066 2.08267,-0.41066 1.07066,0 1.61333,0.41066 1.61333,1.52533 v 0.572 h -1.188 c -2.156,0 -3.40267,0.89467 -3.40267,2.552 0,1.37867 0.924,2.332 2.464,2.332 0.93867,0 1.76,-0.352 2.30267,-1.15867 0.23467,0.76267 0.73333,1.07067 1.51067,1.15867 l 0.308,-0.93867 c -0.396,-0.14666 -0.64534,-0.36666 -0.64534,-1.04133 z m -3.168,0.968 c -0.88,0 -1.33466,-0.484 -1.33466,-1.39333 0,-1.056 0.71866,-1.584 2.14133,-1.584 h 1.012 v 1.77466 c -0.44,0.80667 -1.02667,1.20267 -1.81867,1.20267 z" />
    <path
       id="path100"
       style="font-style:normal;font-variant:normal;font-weight:normal;font-stretch:normal;font-size:14.66666698px;font-family:'Fira Sans';-inkscape-font-specification:'Fira Sans'"
       d="m 372.38511,139.03121 c -0.93867,0 -1.65733,0.58666 -2.068,1.74533 l -0.132,-1.56933 h -1.15867 v 7.72933 h 1.34934 v -4.41467 c 0.32266,-1.48133 0.88,-2.17066 1.848,-2.17066 0.27866,0 0.44,0.0293 0.67466,0.088 l 0.24934,-1.32 c -0.23467,-0.0587 -0.51334,-0.088 -0.76267,-0.088 z" />
  </g>
  <g
     id="text4563"
     style="font-style:normal;font-weight:normal;font-size:40px;line-height:1.25;font-family:sans-serif;letter-spacing:0px;word-spacing:0px;fill:#000000;fill-opacity:1;stroke:none"
     aria-label="Comunicar">
    <path
       id="path103"
       style="font-style:normal;font-variant:normal;font-weight:normal;font-stretch:normal;font-size:14.66666698px;font-family:'Fira Sans';-inkscape-font-specification:'Fira Sans'"
       d="m 435.02672,94.715676 c -2.288,0 -4.19466,1.804 -4.19466,5.221333 0,3.402671 1.77466,5.236001 4.224,5.236001 1.364,0 2.332,-0.55733 2.88933,-1.12933 l -0.68933,-0.88 c -0.572,0.42533 -1.20267,0.836 -2.156,0.836 -1.56934,0 -2.78667,-1.144 -2.78667,-4.062671 0,-3.050667 1.276,-4.077333 2.80133,-4.077333 0.704,0 1.32,0.234666 1.95067,0.748 l 0.76267,-0.894667 c -0.80667,-0.645333 -1.52534,-0.997333 -2.80134,-0.997333 z" />
    <path
       id="path105"
       style="font-style:normal;font-variant:normal;font-weight:normal;font-stretch:normal;font-size:14.66666698px;font-family:'Fira Sans';-inkscape-font-specification:'Fira Sans'"
       d="m 442.25762,97.091676 c -2.2,0 -3.46133,1.657333 -3.46133,4.048004 0,2.44933 1.24666,4.03333 3.44666,4.03333 2.18534,0 3.44667,-1.65733 3.44667,-4.048 0,-2.449334 -1.232,-4.033334 -3.432,-4.033334 z m 0,1.085333 c 1.276,0 1.98,0.938667 1.98,2.948001 0,2.024 -0.704,2.96267 -1.99467,2.96267 -1.29066,0 -1.99466,-0.93867 -1.99466,-2.948 0,-2.024004 0.71866,-2.962671 2.00933,-2.962671 z" />
    <path
       id="path107"
       style="font-style:normal;font-variant:normal;font-weight:normal;font-stretch:normal;font-size:14.66666698px;font-family:'Fira Sans';-inkscape-font-specification:'Fira Sans'"
       d="m 455.67739,97.091676 c -1.04133,0 -1.74533,0.557333 -2.30267,1.393333 -0.29333,-0.88 -0.99733,-1.393333 -1.95066,-1.393333 -1.012,0 -1.716,0.528 -2.22934,1.305333 l -0.11733,-1.129333 h -1.15867 v 7.729334 h 1.34934 v -5.485334 c 0.51333,-0.821334 0.98266,-1.364 1.81866,-1.364 0.58667,0 1.08534,0.337333 1.08534,1.496 v 5.353334 h 1.34933 v -5.485334 c 0.528,-0.821334 0.98267,-1.364 1.81867,-1.364 0.58666,0 1.08533,0.337333 1.08533,1.496 v 5.353334 h 1.34933 v -5.544001 c 0,-1.452 -0.836,-2.361333 -2.09733,-2.361333 z" />
    <path
       id="path109"
       style="font-style:normal;font-variant:normal;font-weight:normal;font-stretch:normal;font-size:14.66666698px;font-family:'Fira Sans';-inkscape-font-specification:'Fira Sans'"
       d="m 466.24358,97.267676 h -1.34933 v 5.514664 c -0.46934,0.77734 -1.1,1.33467 -1.936,1.33467 -0.836,0 -1.188,-0.396 -1.188,-1.452 v -5.397334 h -1.34934 v 5.544004 c 0,1.51066 0.80667,2.36133 2.156,2.36133 1.1,0 1.81867,-0.44 2.40534,-1.37867 l 0.10266,1.20267 h 1.15867 z" />
    <path
       id="path111"
       style="font-style:normal;font-variant:normal;font-weight:normal;font-stretch:normal;font-size:14.66666698px;font-family:'Fira Sans';-inkscape-font-specification:'Fira Sans'"
       d="m 472.66804,97.091676 c -1.012,0 -1.83334,0.528 -2.36134,1.32 l -0.11733,-1.144 h -1.15867 v 7.729334 h 1.34934 v -5.485334 c 0.51333,-0.821334 1.1,-1.364 1.96533,-1.364 0.748,0 1.21733,0.337333 1.21733,1.496 v 5.353334 h 1.34934 v -5.544001 c 0,-1.466667 -0.82134,-2.361333 -2.244,-2.361333 z" />
    <path
       id="path113"
       style="font-style:normal;font-variant:normal;font-weight:normal;font-stretch:normal;font-size:14.66666698px;font-family:'Fira Sans';-inkscape-font-specification:'Fira Sans'"
       d="m 478.28445,93.557009 c -0.55733,0 -0.93866,0.396 -0.93866,0.924 0,0.513333 0.38133,0.909333 0.93866,0.909333 0.572,0 0.95334,-0.396 0.95334,-0.909333 0,-0.528 -0.38134,-0.924 -0.95334,-0.924 z m 0.68934,3.710667 h -1.34934 v 7.729334 h 1.34934 z" />
    <path
       id="path115"
       style="font-style:normal;font-variant:normal;font-weight:normal;font-stretch:normal;font-size:14.66666698px;font-family:'Fira Sans';-inkscape-font-specification:'Fira Sans'"
       d="m 484.56545,97.091676 c -2.09733,0 -3.37333,1.642666 -3.37333,4.106664 0,2.49334 1.29067,3.97467 3.37333,3.97467 0.89467,0 1.672,-0.29333 2.36134,-0.85067 l -0.616,-0.88 c -0.58667,0.38134 -1.04134,0.58667 -1.68667,0.58667 -1.21733,0 -1.98,-0.836 -1.98,-2.86 0,-2.009334 0.76267,-2.962668 1.98,-2.962668 0.64533,0 1.12933,0.190667 1.65733,0.572 l 0.64534,-0.850666 c -0.71867,-0.601334 -1.452,-0.836 -2.36134,-0.836 z" />
    <path
       id="path117"
       style="font-style:normal;font-variant:normal;font-weight:normal;font-stretch:normal;font-size:14.66666698px;font-family:'Fira Sans';-inkscape-font-specification:'Fira Sans'"
       d="m 493.83112,103.19301 v -3.534668 c 0,-1.613333 -0.85067,-2.566666 -2.71333,-2.566666 -0.86534,0 -1.716,0.176 -2.66934,0.528 l 0.33734,0.982666 c 0.792,-0.264 1.51066,-0.410666 2.08266,-0.410666 1.07067,0 1.61334,0.410666 1.61334,1.525333 v 0.572001 h -1.188 c -2.156,0 -3.40267,0.89467 -3.40267,2.552 0,1.37867 0.924,2.332 2.464,2.332 0.93867,0 1.76,-0.352 2.30267,-1.15867 0.23466,0.76267 0.73333,1.07067 1.51066,1.15867 l 0.308,-0.93867 c -0.396,-0.14666 -0.64533,-0.36666 -0.64533,-1.04133 z m -3.168,0.968 c -0.88,0 -1.33467,-0.484 -1.33467,-1.39333 0,-1.056 0.71867,-1.584 2.14134,-1.584 h 1.012 v 1.77466 c -0.44,0.80667 -1.02667,1.20267 -1.81867,1.20267 z" />
    <path
       id="path119"
       style="font-style:normal;font-variant:normal;font-weight:normal;font-stretch:normal;font-size:14.66666698px;font-family:'Fira Sans';-inkscape-font-specification:'Fira Sans'"
       d="m 499.97531,97.091676 c -0.93866,0 -1.65733,0.586666 -2.068,1.745333 l -0.132,-1.569333 h -1.15866 v 7.729334 h 1.34933 v -4.41467 c 0.32267,-1.481331 0.88,-2.170664 1.848,-2.170664 0.27867,0 0.44,0.02933 0.67467,0.088 l 0.24933,-1.32 c -0.23467,-0.05867 -0.51333,-0.088 -0.76267,-0.088 z" />
  </g>
  <g
     id="text4567"
     style="font-style:normal;font-weight:normal;font-size:40px;line-height:1.25;font-family:sans-serif;letter-spacing:0px;word-spacing:0px;fill:#4d4d4d;fill-opacity:1;stroke:none"
     aria-label="Comprender">
    <path
       id="path122"
       style="font-style:normal;font-variant:normal;font-weight:bold;font-stretch:normal;font-size:12px;font-family:'Fira Sans';-inkscape-font-specification:'Fira Sans Bold';fill:#4d4d4d"
       d="m 202.01995,168.15548 c -2.16,0 -3.78,1.56 -3.78,4.344 0,2.844 1.524,4.38 3.804,4.38 1.152,0 2.052,-0.516 2.604,-1.068 l -0.876,-1.128 c -0.492,0.372 -0.972,0.672 -1.632,0.672 -1.104,0 -1.836,-0.852 -1.836,-2.856 0,-2.04 0.744,-2.892 1.812,-2.892 0.564,0 1.032,0.216 1.5,0.576 l 0.936,-1.116 c -0.696,-0.588 -1.452,-0.912 -2.532,-0.912 z" />
    <path
       id="path124"
       style="font-style:normal;font-variant:normal;font-weight:bold;font-stretch:normal;font-size:12px;font-family:'Fira Sans';-inkscape-font-specification:'Fira Sans Bold';fill:#4d4d4d"
       d="m 208.0042,170.09948 c -1.944,0 -3.12,1.344 -3.12,3.384 0,2.148 1.188,3.396 3.12,3.396 1.944,0 3.12,-1.344 3.12,-3.384 0,-2.148 -1.176,-3.396 -3.12,-3.396 z m 0,1.392 c 0.768,0 1.152,0.588 1.152,2.004 0,1.38 -0.384,1.992 -1.152,1.992 -0.768,0 -1.152,-0.588 -1.152,-2.004 0,-1.38 0.384,-1.992 1.152,-1.992 z" />
    <path
       id="path126"
       style="font-style:normal;font-variant:normal;font-weight:bold;font-stretch:normal;font-size:12px;font-family:'Fira Sans';-inkscape-font-specification:'Fira Sans Bold';fill:#4d4d4d"
       d="m 219.29601,170.09948 c -0.816,0 -1.404,0.336 -1.908,1.008 -0.24,-0.648 -0.792,-1.008 -1.5,-1.008 -0.78,0 -1.356,0.324 -1.848,0.948 l -0.132,-0.744 h -1.656 v 6.372 h 1.896 v -4.356 c 0.276,-0.528 0.576,-0.828 0.972,-0.828 0.288,0 0.54,0.18 0.54,0.852 v 4.332 h 1.896 v -4.356 c 0.276,-0.528 0.564,-0.828 0.972,-0.828 0.288,0 0.54,0.18 0.54,0.852 v 4.332 h 1.896 v -4.656 c 0,-1.212 -0.684,-1.92 -1.668,-1.92 z" />
    <path
       id="path128"
       style="font-style:normal;font-variant:normal;font-weight:bold;font-stretch:normal;font-size:12px;font-family:'Fira Sans';-inkscape-font-specification:'Fira Sans Bold';fill:#4d4d4d"
       d="m 226.00045,170.09948 c -0.624,0 -1.308,0.252 -1.836,0.912 l -0.096,-0.708 h -1.668 v 9.036 l 1.896,-0.204 v -2.916 c 0.396,0.444 0.924,0.66 1.548,0.66 1.572,0 2.532,-1.44 2.532,-3.408 0,-2.064 -0.732,-3.372 -2.376,-3.372 z m -0.732,5.388 c -0.396,0 -0.708,-0.18 -0.972,-0.564 v -2.688 c 0.276,-0.468 0.66,-0.744 1.104,-0.744 0.624,0 1.008,0.42 1.008,2.004 0,1.428 -0.432,1.992 -1.14,1.992 z" />
    <path
       id="path130"
       style="font-style:normal;font-variant:normal;font-weight:bold;font-stretch:normal;font-size:12px;font-family:'Fira Sans';-inkscape-font-specification:'Fira Sans Bold';fill:#4d4d4d"
       d="m 233.02832,170.12348 c -0.732,0 -1.356,0.528 -1.644,1.416 l -0.156,-1.236 h -1.656 v 6.372 h 1.896 v -3.156 c 0.204,-0.972 0.528,-1.56 1.32,-1.56 0.216,0 0.372,0.036 0.576,0.084 l 0.3,-1.836 c -0.204,-0.06 -0.396,-0.084 -0.636,-0.084 z" />
    <path
       id="path132"
       style="font-style:normal;font-variant:normal;font-weight:bold;font-stretch:normal;font-size:12px;font-family:'Fira Sans';-inkscape-font-specification:'Fira Sans Bold';fill:#4d4d4d"
       d="m 239.58145,173.36348 c 0,-2.064 -1.116,-3.264 -2.94,-3.264 -1.932,0 -2.976,1.512 -2.976,3.42 0,1.992 1.08,3.36 3.204,3.36 1.032,0 1.848,-0.384 2.484,-0.888 l -0.78,-1.056 c -0.552,0.384 -1.008,0.564 -1.524,0.564 -0.78,0 -1.32,-0.312 -1.452,-1.452 h 3.948 c 0.024,-0.192 0.036,-0.48 0.036,-0.684 z m -1.86,-0.456 h -2.124 c 0.084,-1.14 0.456,-1.548 1.092,-1.548 0.756,0 1.02,0.6 1.032,1.464 z" />
    <path
       id="path134"
       style="font-style:normal;font-variant:normal;font-weight:bold;font-stretch:normal;font-size:12px;font-family:'Fira Sans';-inkscape-font-specification:'Fira Sans Bold';fill:#4d4d4d"
       d="m 244.39026,170.09948 c -0.792,0 -1.404,0.324 -1.944,0.96 l -0.132,-0.756 h -1.656 v 6.372 h 1.896 v -4.356 c 0.336,-0.528 0.684,-0.828 1.104,-0.828 0.372,0 0.6,0.18 0.6,0.852 v 4.332 h 1.896 v -4.656 c 0,-1.212 -0.66,-1.92 -1.764,-1.92 z" />
    <path
       id="path136"
       style="font-style:normal;font-variant:normal;font-weight:bold;font-stretch:normal;font-size:12px;font-family:'Fira Sans';-inkscape-font-specification:'Fira Sans Bold';fill:#4d4d4d"
       d="m 251.38832,167.56748 v 3.132 c -0.372,-0.372 -0.888,-0.6 -1.512,-0.6 -1.572,0 -2.604,1.404 -2.604,3.372 0,2.064 0.804,3.408 2.424,3.408 0.864,0 1.44,-0.42 1.812,-0.948 l 0.096,0.744 h 1.68 v -8.904 z m -1.104,7.92 c -0.612,0 -1.044,-0.42 -1.044,-2.004 0,-1.428 0.48,-2.004 1.152,-2.004 0.42,0 0.708,0.204 0.996,0.54 v 2.748 c -0.3,0.48 -0.648,0.72 -1.104,0.72 z" />
    <path
       id="path138"
       style="font-style:normal;font-variant:normal;font-weight:bold;font-stretch:normal;font-size:12px;font-family:'Fira Sans';-inkscape-font-specification:'Fira Sans Bold';fill:#4d4d4d"
       d="m 260.32364,173.36348 c 0,-2.064 -1.116,-3.264 -2.94,-3.264 -1.932,0 -2.976,1.512 -2.976,3.42 0,1.992 1.08,3.36 3.204,3.36 1.032,0 1.848,-0.384 2.484,-0.888 l -0.78,-1.056 c -0.552,0.384 -1.008,0.564 -1.524,0.564 -0.78,0 -1.32,-0.312 -1.452,-1.452 h 3.948 c 0.024,-0.192 0.036,-0.48 0.036,-0.684 z m -1.86,-0.456 h -2.124 c 0.084,-1.14 0.456,-1.548 1.092,-1.548 0.756,0 1.02,0.6 1.032,1.464 z" />
    <path
       id="path140"
       style="font-style:normal;font-variant:normal;font-weight:bold;font-stretch:normal;font-size:12px;font-family:'Fira Sans';-inkscape-font-specification:'Fira Sans Bold';fill:#4d4d4d"
       d="m 264.85645,170.12348 c -0.732,0 -1.356,0.528 -1.644,1.416 l -0.156,-1.236 h -1.656 v 6.372 h 1.896 v -3.156 c 0.204,-0.972 0.528,-1.56 1.32,-1.56 0.216,0 0.372,0.036 0.576,0.084 l 0.3,-1.836 c -0.204,-0.06 -0.396,-0.084 -0.636,-0.084 z" />
  </g>
  <g
     id="g992">
    <g
       id="text4543"
       style="font-style:normal;font-weight:normal;font-size:40px;line-height:1.25;font-family:sans-serif;letter-spacing:0px;word-spacing:0px;fill:#000000;fill-opacity:1;stroke:none"
       aria-label="Importar">
      <path
         id="path143"
         style="font-style:normal;font-variant:normal;font-weight:normal;font-stretch:normal;font-size:14.66666698px;font-family:'Fira Sans';-inkscape-font-specification:'Fira Sans';fill:#0597fe"
         d="m 56.584476,94.891683 h -1.393333 v 10.105337 h 1.393333 z" />
      <path
         id="path145"
         style="font-style:normal;font-variant:normal;font-weight:normal;font-stretch:normal;font-size:14.66666698px;font-family:'Fira Sans';-inkscape-font-specification:'Fira Sans';fill:#0597fe"
         d="m 67.201997,97.091683 c -1.041333,0 -1.745333,0.557334 -2.302667,1.393334 -0.293333,-0.88 -0.997333,-1.393334 -1.950666,-1.393334 -1.012,0 -1.716,0.528 -2.229334,1.305334 L 60.601997,97.267683 H 59.44333 v 7.729337 h 1.349334 v -5.485337 c 0.513333,-0.821333 0.982666,-1.364 1.818666,-1.364 0.586667,0 1.085334,0.337334 1.085334,1.496 v 5.353337 h 1.349333 v -5.485337 c 0.528,-0.821333 0.982667,-1.364 1.818667,-1.364 0.586666,0 1.085333,0.337334 1.085333,1.496 v 5.353337 h 1.349333 v -5.544003 c 0,-1.452 -0.836,-2.361334 -2.097333,-2.361334 z" />
      <path
         id="path147"
         style="font-style:normal;font-variant:normal;font-weight:normal;font-stretch:normal;font-size:14.66666698px;font-family:'Fira Sans';-inkscape-font-specification:'Fira Sans';fill:#0597fe"
         d="m 75.568186,97.091683 c -0.88,0 -1.716,0.425334 -2.288,1.217334 l -0.102667,-1.041334 h -1.158667 v 10.853337 l 1.349334,-0.16134 v -3.66666 c 0.498666,0.60133 1.188,0.88 2.024,0.88 1.994666,0 3.036,-1.70134 3.036,-4.048 0,-2.43467 -0.806667,-4.033337 -2.86,-4.033337 z m -0.498667,6.981337 c -0.704,0 -1.305333,-0.33734 -1.701333,-0.93867 v -3.769333 c 0.410666,-0.616 1.041333,-1.202667 1.862666,-1.202667 1.158667,0 1.745334,0.953333 1.745334,2.96267 0,2.024 -0.674667,2.948 -1.906667,2.948 z" />
      <path
         id="path149"
         style="font-style:normal;font-variant:normal;font-weight:normal;font-stretch:normal;font-size:14.66666698px;font-family:'Fira Sans';-inkscape-font-specification:'Fira Sans';fill:#0597fe"
         d="m 83.631186,97.091683 c -2.2,0 -3.461333,1.657334 -3.461333,4.047997 0,2.44934 1.246666,4.03334 3.446667,4.03334 2.185333,0 3.446666,-1.65734 3.446666,-4.048 0,-2.449337 -1.232,-4.033337 -3.432,-4.033337 z m 0,1.085334 c 1.276,0 1.98,0.938666 1.98,2.948003 0,2.024 -0.704,2.96266 -1.994666,2.96266 -1.290667,0 -1.994667,-0.93866 -1.994667,-2.948 0,-2.023997 0.718666,-2.962663 2.009333,-2.962663 z" />
      <path
         id="path151"
         style="font-style:normal;font-variant:normal;font-weight:normal;font-stretch:normal;font-size:14.66666698px;font-family:'Fira Sans';-inkscape-font-specification:'Fira Sans';fill:#0597fe"
         d="m 92.650956,97.091683 c -0.938666,0 -1.657333,0.586667 -2.068,1.745334 l -0.132,-1.569334 H 89.29229 v 7.729337 h 1.349333 v -4.41467 c 0.322667,-1.481333 0.88,-2.170667 1.848,-2.170667 0.278667,0 0.44,0.02933 0.674667,0.088 l 0.249333,-1.32 c -0.234667,-0.05867 -0.513333,-0.088 -0.762667,-0.088 z" />
      <path
         id="path153"
         style="font-style:normal;font-variant:normal;font-weight:normal;font-stretch:normal;font-size:14.66666698px;font-family:'Fira Sans';-inkscape-font-specification:'Fira Sans';fill:#0597fe"
         d="m 98.352165,103.75035 c -0.381334,0.20533 -0.689334,0.308 -1.026667,0.308 -0.674667,0 -0.924,-0.36667 -0.924,-1.144 v -4.605333 h 1.686667 l 0.146666,-1.041334 h -1.833333 v -1.906666 l -1.349333,0.161333 v 1.745333 h -1.349334 v 1.041334 h 1.349334 v 4.664003 c 0,1.43733 0.777333,2.2 2.082666,2.2 0.66,0 1.217334,-0.176 1.730667,-0.528 z" />
      <path
         id="path155"
         style="font-style:normal;font-variant:normal;font-weight:normal;font-stretch:normal;font-size:14.66666698px;font-family:'Fira Sans';-inkscape-font-specification:'Fira Sans';fill:#0597fe"
         d="m 105.35573,103.19302 v -3.53467 c 0,-1.613333 -0.85067,-2.566667 -2.71334,-2.566667 -0.86533,0 -1.716,0.176 -2.669331,0.528 l 0.337331,0.982667 c 0.792,-0.264 1.51067,-0.410667 2.08267,-0.410667 1.07067,0 1.61333,0.410667 1.61333,1.525334 v 0.572003 h -1.188 c -2.156,0 -3.402664,0.89466 -3.402664,2.552 0,1.37866 0.924004,2.332 2.464004,2.332 0.93866,0 1.76,-0.352 2.30266,-1.15867 0.23467,0.76267 0.73334,1.07067 1.51067,1.15867 l 0.308,-0.93867 c -0.396,-0.14667 -0.64533,-0.36667 -0.64533,-1.04133 z m -3.168,0.968 c -0.88,0 -1.33467,-0.484 -1.33467,-1.39334 0,-1.056 0.71867,-1.584 2.14133,-1.584 h 1.012 v 1.77467 c -0.44,0.80667 -1.02666,1.20267 -1.81866,1.20267 z" />
      <path
         id="path157"
         style="font-style:normal;font-variant:normal;font-weight:normal;font-stretch:normal;font-size:14.66666698px;font-family:'Fira Sans';-inkscape-font-specification:'Fira Sans';fill:#0597fe"
         d="m 111.49991,97.091683 c -0.93866,0 -1.65733,0.586667 -2.068,1.745334 l -0.132,-1.569334 h -1.15866 v 7.729337 h 1.34933 v -4.41467 c 0.32267,-1.481333 0.88,-2.170667 1.848,-2.170667 0.27867,0 0.44,0.02933 0.67467,0.088 l 0.24933,-1.32 c -0.23467,-0.05867 -0.51333,-0.088 -0.76267,-0.088 z" />
    </g>
    <g
       id="text4547"
       style="font-style:normal;font-weight:normal;font-size:40px;line-height:1.25;font-family:sans-serif;letter-spacing:0px;word-spacing:0px;fill:#000000;fill-opacity:1;stroke:none"
       aria-label="Ordenar">
      <path
         id="path160"
         style="font-style:normal;font-variant:normal;font-weight:normal;font-stretch:normal;font-size:14.66666698px;font-family:'Fira Sans';-inkscape-font-specification:'Fira Sans';fill:#0597fe"
         d="m 143.09824,94.715683 c -2.52267,0 -4.268,1.921334 -4.268,5.250667 0,3.388 1.74533,5.20667 4.268,5.20667 2.53733,0 4.268,-1.87734 4.268,-5.221337 0,-3.402666 -1.73067,-5.236 -4.268,-5.236 z m 0,1.144 c 1.73067,0 2.78667,1.188 2.78667,4.092 0,2.933337 -1.08534,4.077337 -2.78667,4.077337 -1.64267,0 -2.78667,-1.144 -2.78667,-4.06267 0,-2.918667 1.1,-4.106667 2.78667,-4.106667 z" />
      <path
         id="path162"
         style="font-style:normal;font-variant:normal;font-weight:normal;font-stretch:normal;font-size:14.66666698px;font-family:'Fira Sans';-inkscape-font-specification:'Fira Sans';fill:#0597fe"
         d="m 152.9162,97.091683 c -0.93867,0 -1.65733,0.586667 -2.068,1.745334 l -0.132,-1.569334 h -1.15867 v 7.729337 h 1.34934 v -4.41467 c 0.32266,-1.481333 0.88,-2.170667 1.848,-2.170667 0.27866,0 0.44,0.02933 0.67466,0.088 l 0.24934,-1.32 c -0.23467,-0.05867 -0.51334,-0.088 -0.76267,-0.088 z" />
      <path
         id="path164"
         style="font-style:normal;font-variant:normal;font-weight:normal;font-stretch:normal;font-size:14.66666698px;font-family:'Fira Sans';-inkscape-font-specification:'Fira Sans';fill:#0597fe"
         d="m 159.43439,93.997017 v 4.048 c -0.51334,-0.542667 -1.17334,-0.953334 -2.08267,-0.953334 -1.892,0 -3.036,1.716 -3.036,4.077337 0,2.40533 1.04133,4.004 2.91867,4.004 0.95333,0 1.73066,-0.46934 2.22933,-1.24667 l 0.132,1.07067 h 1.188 V 94.15835 Z m -1.90667,10.105333 c -1.11467,0 -1.76,-0.924 -1.76,-2.96267 0,-2.00933 0.71867,-2.97733 1.87733,-2.97733 0.76267,0 1.30534,0.396 1.78934,1.012 v 3.784 c -0.51334,0.71867 -1.04134,1.144 -1.90667,1.144 z" />
      <path
         id="path166"
         style="font-style:normal;font-variant:normal;font-weight:normal;font-stretch:normal;font-size:14.66666698px;font-family:'Fira Sans';-inkscape-font-specification:'Fira Sans';fill:#0597fe"
         d="m 169.40268,100.90502 c 0,-2.361337 -1.1,-3.813337 -3.18267,-3.813337 -1.99466,0 -3.212,1.716 -3.212,4.121337 0,2.44933 1.26134,3.96 3.41734,3.96 1.07066,0 1.936,-0.36667 2.69866,-0.968 l -0.58666,-0.80667 c -0.67467,0.46933 -1.24667,0.67467 -2.00934,0.67467 -1.11466,0 -1.95066,-0.68934 -2.08266,-2.47867 h 4.928 c 0.0147,-0.176 0.0293,-0.42533 0.0293,-0.68933 z m -1.33467,-0.308 h -3.62266 c 0.10266,-1.716003 0.77733,-2.43467 1.804,-2.43467 1.21733,0 1.81866,0.836 1.81866,2.34667 z" />
      <path
         id="path168"
         style="font-style:normal;font-variant:normal;font-weight:normal;font-stretch:normal;font-size:14.66666698px;font-family:'Fira Sans';-inkscape-font-specification:'Fira Sans';fill:#0597fe"
         d="m 175.19487,97.091683 c -1.012,0 -1.83334,0.528 -2.36134,1.32 l -0.11733,-1.144 h -1.15867 v 7.729337 h 1.34934 v -5.485337 c 0.51333,-0.821333 1.1,-1.364 1.96533,-1.364 0.748,0 1.21733,0.337334 1.21733,1.496 v 5.353337 h 1.34934 v -5.544003 c 0,-1.466667 -0.82134,-2.361334 -2.244,-2.361334 z" />
      <path
         id="path170"
         style="font-style:normal;font-variant:normal;font-weight:normal;font-stretch:normal;font-size:14.66666698px;font-family:'Fira Sans';-inkscape-font-specification:'Fira Sans';fill:#0597fe"
         d="m 185.35795,103.19302 v -3.53467 c 0,-1.613333 -0.85067,-2.566667 -2.71333,-2.566667 -0.86534,0 -1.716,0.176 -2.66934,0.528 l 0.33734,0.982667 c 0.792,-0.264 1.51066,-0.410667 2.08266,-0.410667 1.07067,0 1.61334,0.410667 1.61334,1.525334 v 0.572003 h -1.188 c -2.156,0 -3.40267,0.89466 -3.40267,2.552 0,1.37866 0.924,2.332 2.464,2.332 0.93867,0 1.76,-0.352 2.30267,-1.15867 0.23466,0.76267 0.73333,1.07067 1.51066,1.15867 l 0.308,-0.93867 c -0.396,-0.14667 -0.64533,-0.36667 -0.64533,-1.04133 z m -3.168,0.968 c -0.88,0 -1.33467,-0.484 -1.33467,-1.39334 0,-1.056 0.71867,-1.584 2.14134,-1.584 h 1.012 v 1.77467 c -0.44,0.80667 -1.02667,1.20267 -1.81867,1.20267 z" />
      <path
         id="path172"
         style="font-style:normal;font-variant:normal;font-weight:normal;font-stretch:normal;font-size:14.66666698px;font-family:'Fira Sans';-inkscape-font-specification:'Fira Sans';fill:#0597fe"
         d="m 191.50214,97.091683 c -0.93867,0 -1.65734,0.586667 -2.068,1.745334 l -0.132,-1.569334 h -1.15867 v 7.729337 h 1.34933 v -4.41467 c 0.32267,-1.481333 0.88,-2.170667 1.848,-2.170667 0.27867,0 0.44,0.02933 0.67467,0.088 l 0.24933,-1.32 c -0.23466,-0.05867 -0.51333,-0.088 -0.76266,-0.088 z" />
    </g>
    <g
       id="text4551"
       style="font-style:normal;font-weight:normal;font-size:40px;line-height:1.25;font-family:sans-serif;letter-spacing:0px;word-spacing:0px;fill:#000000;fill-opacity:1;stroke:none"
       aria-label="Transformar">
      <path
         id="path175"
         style="font-style:normal;font-variant:normal;font-weight:normal;font-stretch:normal;font-size:14.66666698px;font-family:'Fira Sans';-inkscape-font-specification:'Fira Sans';fill:#0597fe"
         d="m 226.05905,94.891683 h -7.216 v 1.188 h 2.87466 v 8.917337 h 1.39334 v -8.917337 h 2.80133 z" />
      <path
         id="path177"
         style="font-style:normal;font-variant:normal;font-weight:normal;font-stretch:normal;font-size:14.66666698px;font-family:'Fira Sans';-inkscape-font-specification:'Fira Sans';fill:#0597fe"
         d="m 230.53651,97.091683 c -0.93867,0 -1.65734,0.586667 -2.068,1.745334 l -0.132,-1.569334 h -1.15867 v 7.729337 h 1.34933 v -4.41467 c 0.32267,-1.481333 0.88,-2.170667 1.848,-2.170667 0.27867,0 0.44,0.02933 0.67467,0.088 l 0.24933,-1.32 c -0.23466,-0.05867 -0.51333,-0.088 -0.76266,-0.088 z" />
      <path
         id="path179"
         style="font-style:normal;font-variant:normal;font-weight:normal;font-stretch:normal;font-size:14.66666698px;font-family:'Fira Sans';-inkscape-font-specification:'Fira Sans';fill:#0597fe"
         d="m 237.54076,103.19302 v -3.53467 c 0,-1.613333 -0.85067,-2.566667 -2.71334,-2.566667 -0.86533,0 -1.716,0.176 -2.66933,0.528 l 0.33733,0.982667 c 0.792,-0.264 1.51067,-0.410667 2.08267,-0.410667 1.07067,0 1.61333,0.410667 1.61333,1.525334 v 0.572003 h -1.188 c -2.156,0 -3.40266,0.89466 -3.40266,2.552 0,1.37866 0.924,2.332 2.464,2.332 0.93866,0 1.76,-0.352 2.30266,-1.15867 0.23467,0.76267 0.73334,1.07067 1.51067,1.15867 l 0.308,-0.93867 c -0.396,-0.14667 -0.64533,-0.36667 -0.64533,-1.04133 z m -3.168,0.968 c -0.88,0 -1.33467,-0.484 -1.33467,-1.39334 0,-1.056 0.71867,-1.584 2.14133,-1.584 h 1.012 v 1.77467 c -0.44,0.80667 -1.02666,1.20267 -1.81866,1.20267 z" />
      <path
         id="path181"
         style="font-style:normal;font-variant:normal;font-weight:normal;font-stretch:normal;font-size:14.66666698px;font-family:'Fira Sans';-inkscape-font-specification:'Fira Sans';fill:#0597fe"
         d="m 243.96361,97.091683 c -1.012,0 -1.83333,0.528 -2.36133,1.32 l -0.11734,-1.144 h -1.15866 v 7.729337 h 1.34933 v -5.485337 c 0.51333,-0.821333 1.1,-1.364 1.96533,-1.364 0.748,0 1.21734,0.337334 1.21734,1.496 v 5.353337 h 1.34933 v -5.544003 c 0,-1.466667 -0.82133,-2.361334 -2.244,-2.361334 z" />
      <path
         id="path183"
         style="font-style:normal;font-variant:normal;font-weight:normal;font-stretch:normal;font-size:14.66666698px;font-family:'Fira Sans';-inkscape-font-specification:'Fira Sans';fill:#0597fe"
         d="m 251.01736,97.091683 c -1.59867,0 -2.78667,0.894667 -2.78667,2.126667 0,1.08533 0.66,1.804 2.332,2.244 1.496,0.396 1.87734,0.68933 1.87734,1.452 0,0.73333 -0.64534,1.17333 -1.65734,1.17333 -0.836,0 -1.55466,-0.27866 -2.17066,-0.748 l -0.71867,0.82134 c 0.67467,0.58666 1.61333,1.012 2.91867,1.012 1.56933,0 3.05066,-0.73334 3.05066,-2.34667 0,-1.34933 -0.93866,-1.99467 -2.56666,-2.40533 -1.24667,-0.32267 -1.65734,-0.616003 -1.65734,-1.24667 0,-0.616 0.54267,-1.012 1.42267,-1.012 0.71867,0 1.32,0.22 2.00933,0.66 l 0.572,-0.850667 c -0.73333,-0.557333 -1.54,-0.88 -2.62533,-0.88 z" />
      <path
         id="path185"
         style="font-style:normal;font-variant:normal;font-weight:normal;font-stretch:normal;font-size:14.66666698px;font-family:'Fira Sans';-inkscape-font-specification:'Fira Sans';fill:#0597fe"
         d="m 258.39171,95.08235 c 0.396,0 0.85067,0.07333 1.34934,0.293333 l 0.42533,-0.982666 c -0.616,-0.264 -1.11467,-0.396 -1.848,-0.396 -1.56933,0 -2.42,0.924 -2.42,2.214666 v 1.056 h -1.37867 v 1.041334 h 1.37867 v 6.688003 h 1.34933 v -6.688003 h 1.73067 l 0.14667,-1.041334 h -1.87734 v -1.070666 c 0,-0.748 0.29334,-1.114667 1.144,-1.114667 z" />
      <path
         id="path187"
         style="font-style:normal;font-variant:normal;font-weight:normal;font-stretch:normal;font-size:14.66666698px;font-family:'Fira Sans';-inkscape-font-specification:'Fira Sans';fill:#0597fe"
         d="m 263.45424,97.091683 c -2.2,0 -3.46134,1.657334 -3.46134,4.047997 0,2.44934 1.24667,4.03334 3.44667,4.03334 2.18533,0 3.44667,-1.65734 3.44667,-4.048 0,-2.449337 -1.232,-4.033337 -3.432,-4.033337 z m 0,1.085334 c 1.276,0 1.98,0.938666 1.98,2.948003 0,2.024 -0.704,2.96266 -1.99467,2.96266 -1.29067,0 -1.99467,-0.93866 -1.99467,-2.948 0,-2.023997 0.71867,-2.962663 2.00934,-2.962663 z" />
      <path
         id="path189"
         style="font-style:normal;font-variant:normal;font-weight:normal;font-stretch:normal;font-size:14.66666698px;font-family:'Fira Sans';-inkscape-font-specification:'Fira Sans';fill:#0597fe"
         d="m 272.47401,97.091683 c -0.93867,0 -1.65734,0.586667 -2.068,1.745334 l -0.132,-1.569334 h -1.15867 v 7.729337 h 1.34933 v -4.41467 c 0.32267,-1.481333 0.88,-2.170667 1.848,-2.170667 0.27867,0 0.44,0.02933 0.67467,0.088 l 0.24933,-1.32 c -0.23466,-0.05867 -0.51333,-0.088 -0.76266,-0.088 z" />
      <path
         id="path191"
         style="font-style:normal;font-variant:normal;font-weight:normal;font-stretch:normal;font-size:14.66666698px;font-family:'Fira Sans';-inkscape-font-specification:'Fira Sans';fill:#0597fe"
         d="m 282.54588,97.091683 c -1.04133,0 -1.74533,0.557334 -2.30266,1.393334 -0.29334,-0.88 -0.99734,-1.393334 -1.95067,-1.393334 -1.012,0 -1.716,0.528 -2.22933,1.305334 l -0.11734,-1.129334 h -1.15866 v 7.729337 h 1.34933 v -5.485337 c 0.51333,-0.821333 0.98267,-1.364 1.81867,-1.364 0.58666,0 1.08533,0.337334 1.08533,1.496 v 5.353337 h 1.34933 v -5.485337 c 0.528,-0.821333 0.98267,-1.364 1.81867,-1.364 0.58667,0 1.08533,0.337334 1.08533,1.496 v 5.353337 h 1.34934 v -5.544003 c 0,-1.452 -0.836,-2.361334 -2.09734,-2.361334 z" />
      <path
         id="path193"
         style="font-style:normal;font-variant:normal;font-weight:normal;font-stretch:normal;font-size:14.66666698px;font-family:'Fira Sans';-inkscape-font-specification:'Fira Sans';fill:#0597fe"
         d="m 292.56941,103.19302 v -3.53467 c 0,-1.613333 -0.85067,-2.566667 -2.71334,-2.566667 -0.86533,0 -1.716,0.176 -2.66933,0.528 l 0.33733,0.982667 c 0.792,-0.264 1.51067,-0.410667 2.08267,-0.410667 1.07067,0 1.61333,0.410667 1.61333,1.525334 v 0.572003 h -1.188 c -2.156,0 -3.40266,0.89466 -3.40266,2.552 0,1.37866 0.924,2.332 2.464,2.332 0.93866,0 1.76,-0.352 2.30266,-1.15867 0.23467,0.76267 0.73334,1.07067 1.51067,1.15867 l 0.308,-0.93867 c -0.396,-0.14667 -0.64533,-0.36667 -0.64533,-1.04133 z m -3.168,0.968 c -0.88,0 -1.33467,-0.484 -1.33467,-1.39334 0,-1.056 0.71867,-1.584 2.14133,-1.584 h 1.012 v 1.77467 c -0.44,0.80667 -1.02666,1.20267 -1.81866,1.20267 z" />
      <path
         id="path195"
         style="font-style:normal;font-variant:normal;font-weight:normal;font-stretch:normal;font-size:14.66666698px;font-family:'Fira Sans';-inkscape-font-specification:'Fira Sans';fill:#0597fe"
         d="m 298.71359,97.091683 c -0.93866,0 -1.65733,0.586667 -2.068,1.745334 l -0.132,-1.569334 h -1.15866 v 7.729337 h 1.34933 v -4.41467 c 0.32267,-1.481333 0.88,-2.170667 1.848,-2.170667 0.27867,0 0.44,0.02933 0.67467,0.088 l 0.24933,-1.32 c -0.23467,-0.05867 -0.51333,-0.088 -0.76267,-0.088 z" />
    </g>
    <path
       style="fill:none;stroke:#000000;stroke-width:1.20000005;stroke-linecap:butt;stroke-linejoin:miter;stroke-miterlimit:4;stroke-dasharray:none;stroke-opacity:1;marker-end:url(#Arrow2Mend)"
       d="M 117.74741,98.896716 H 131.5312"
       id="path4575" />
    <path
       id="path4859"
       d="m 197.74963,98.896716 h 13.79438"
       style="fill:none;stroke:#000000;stroke-width:1.20000005;stroke-linecap:butt;stroke-linejoin:miter;stroke-miterlimit:4;stroke-dasharray:none;stroke-opacity:1;marker-end:url(#marker4863)" />
  </g>
  <path
     id="path5884"
     d="m 263.50929,84.08997 c 9.75098,-8.660838 18.49385,-17.211899 42.02725,-22.267332"
     style="fill:none;stroke:#000000;stroke-width:1.20000005;stroke-linecap:butt;stroke-linejoin:miter;stroke-miterlimit:4;stroke-dasharray:none;stroke-opacity:1;marker-end:url(#marker5888)" />
  <path
     id="path7060"
     d="m 308.36489,148.72885 c -31.2991,5.72311 -57.67444,3.74131 -55.45104,-30.07731"
     style="fill:none;stroke:#000000;stroke-width:1.20000005;stroke-linecap:butt;stroke-linejoin:miter;stroke-miterlimit:4;stroke-dasharray:none;stroke-opacity:1;marker-end:url(#marker7064)" />
  <path
     id="path8272"
     d="m 365.16347,69.963092 c 11.59167,13.040714 10.13511,32.526008 -8.06957,53.637638"
     style="fill:none;stroke:#000000;stroke-width:1.20000005;stroke-linecap:butt;stroke-linejoin:miter;stroke-miterlimit:4;stroke-dasharray:none;stroke-opacity:1;marker-end:url(#marker8276)" />
  <g
     id="text1045"
     style="font-style:normal;font-weight:normal;font-size:40px;line-height:1.25;font-family:sans-serif;letter-spacing:0px;word-spacing:0px;fill:#4d4d4d;fill-opacity:1;stroke:none"
     aria-label="Domar">
    <path
       id="path198"
       style="font-style:normal;font-variant:normal;font-weight:bold;font-stretch:normal;font-size:12px;font-family:'Fira Sans';-inkscape-font-specification:'Fira Sans Bold';fill:#0597fe"
       d="m 58.179141,115.38066 h -2.316 v 8.316 h 2.496 c 2.124,0 4.14,-0.852 4.14,-4.2 0,-3.432 -2.1,-4.116 -4.32,-4.116 z m 0.276,1.428 c 1.152,0 2.004,0.456 2.004,2.688 0,2.208 -0.792,2.772 -1.98,2.772 h -0.648 v -5.46 z" />
    <path
       id="path200"
       style="font-style:normal;font-variant:normal;font-weight:bold;font-stretch:normal;font-size:12px;font-family:'Fira Sans';-inkscape-font-specification:'Fira Sans Bold';fill:#0597fe"
       d="m 66.391829,117.12066 c -1.944,0 -3.12,1.344 -3.12,3.384 0,2.148 1.188,3.396 3.12,3.396 1.944,0 3.12,-1.344 3.12,-3.384 0,-2.148 -1.176,-3.396 -3.12,-3.396 z m 0,1.392 c 0.768,0 1.152,0.588 1.152,2.004 0,1.38 -0.384,1.992 -1.152,1.992 -0.768,0 -1.152,-0.588 -1.152,-2.004 0,-1.38 0.384,-1.992 1.152,-1.992 z" />
    <path
       id="path202"
       style="font-style:normal;font-variant:normal;font-weight:bold;font-stretch:normal;font-size:12px;font-family:'Fira Sans';-inkscape-font-specification:'Fira Sans Bold';fill:#0597fe"
       d="m 77.683641,117.12066 c -0.816,0 -1.404,0.336 -1.908,1.008 -0.24,-0.648 -0.792,-1.008 -1.5,-1.008 -0.78,0 -1.356,0.324 -1.848,0.948 l -0.132,-0.744 h -1.656 v 6.372 h 1.896 v -4.356 c 0.276,-0.528 0.576,-0.828 0.972,-0.828 0.288,0 0.54,0.18 0.54,0.852 v 4.332 h 1.896 v -4.356 c 0.276,-0.528 0.564,-0.828 0.972,-0.828 0.288,0 0.54,0.18 0.54,0.852 v 4.332 h 1.896 v -4.656 c 0,-1.212 -0.684,-1.92 -1.668,-1.92 z" />
    <path
       id="path204"
       style="font-style:normal;font-variant:normal;font-weight:bold;font-stretch:normal;font-size:12px;font-family:'Fira Sans';-inkscape-font-specification:'Fira Sans Bold';fill:#0597fe"
       d="m 85.852079,121.84866 v -2.472 c 0,-1.476 -0.792,-2.256 -2.64,-2.256 -0.72,0 -1.596,0.168 -2.4,0.468 l 0.432,1.248 c 0.636,-0.216 1.26,-0.336 1.668,-0.336 0.78,0 1.08,0.228 1.08,0.984 v 0.276 h -0.648 c -1.932,0 -2.988,0.756 -2.988,2.148 0,1.164 0.804,1.992 2.076,1.992 0.756,0 1.464,-0.252 1.92,-0.96 0.288,0.636 0.78,0.864 1.536,0.924 l 0.396,-1.236 c -0.3,-0.108 -0.432,-0.288 -0.432,-0.78 z m -2.868,0.696 c -0.468,0 -0.744,-0.3 -0.744,-0.804 0,-0.636 0.42,-0.936 1.284,-0.936 h 0.468 v 1.128 c -0.228,0.384 -0.564,0.612 -1.008,0.612 z" />
    <path
       id="path206"
       style="font-style:normal;font-variant:normal;font-weight:bold;font-stretch:normal;font-size:12px;font-family:'Fira Sans';-inkscape-font-specification:'Fira Sans Bold';fill:#0597fe"
       d="m 90.830016,117.14466 c -0.732,0 -1.356,0.528 -1.644,1.416 l -0.156,-1.236 h -1.656 v 6.372 h 1.896 v -3.156 c 0.204,-0.972 0.528,-1.56 1.32,-1.56 0.216,0 0.372,0.036 0.576,0.084 l 0.3,-1.836 c -0.204,-0.06 -0.396,-0.084 -0.636,-0.084 z" />
  </g>
</svg>
